<?xml version="1.0" encoding="utf-8"?>
<!-- Generator: Adobe Illustrator 24.3.0, SVG Export Plug-In . SVG Version: 6.00 Build 0)  -->
<svg version="1.1" id="Layer_1" xmlns="http://www.w3.org/2000/svg" xmlns:xlink="http://www.w3.org/1999/xlink" x="0px" y="0px"
	 viewBox="0 0 573.01 234.02" style="enable-background:new 0 0 573.01 234.02;" xml:space="preserve">
<style type="text/css">
	.st0{fill:url(#SVGID_1_);}
	.st1{fill:url(#SVGID_2_);}
	.st2{fill:url(#SVGID_3_);}
	.st3{fill:url(#SVGID_4_);}
	.st4{fill:url(#SVGID_5_);}
	.st5{fill:url(#SVGID_6_);}
	.st6{fill:url(#SVGID_7_);}
	.st7{fill:url(#SVGID_8_);}
	.st8{fill:#34B0A7;}
	.st9{fill:url(#SVGID_9_);}
	.st10{fill:url(#SVGID_10_);}
</style>
<g>
	<g>
		<g>
			<g>
				<g>
					<g>
						<g>
							<g>
								<g>
									<g>
										<g>
											<linearGradient id="SVGID_1_" gradientUnits="userSpaceOnUse" x1="74.8624" y1="34.8507" x2="74.8624" y2="149.093">
												<stop  offset="0.1428" style="stop-color:#F89521"/>
												<stop  offset="0.9601" style="stop-color:#ED2531"/>
											</linearGradient>
											<path class="st0" d="M117.63,103.55c0-5.66-7.28-5.86-7.28-5.86h24.29v-7.09H83.16v7.1h7.8c7,0,11.05,1.37,11.05,8.39
												v10.18c0,12.37-13.21,22.07-30.08,22.07c-23.38,0-39.09-18.12-39.09-45.1c0-28.87,15.44-48.27,38.42-48.27
												c20.52,0,32.86,10.37,37.68,31.71h7.17V35.85h-7.33l-5.19,12.54l-1.27-1.18c-9.32-8.66-19.16-12.36-32.89-12.36
												c-32.01,0-54.37,23.94-54.37,58.21c0,33.52,22.32,56.04,55.53,56.04c14.7,0,26.05-5.39,33.73-16.02l1.35-1.86l4.99,14.05
												h6.95v-39.18c0-0.04,0-0.07,0-0.11C117.63,105.13,117.63,104.32,117.63,103.55z"/>
										</g>
										<g>
											<linearGradient id="SVGID_2_" gradientUnits="userSpaceOnUse" x1="219.2128" y1="68.0688" x2="219.2128" y2="149.2529">
												<stop  offset="0.1428" style="stop-color:#F89521"/>
												<stop  offset="0.9601" style="stop-color:#ED2531"/>
											</linearGradient>
											<path class="st1" d="M219.29,68.07c-10.11,0-18.82,2.77-25.59,7.7c0.68,1.71,1.04,3.6,1.04,5.6
												c0,8.85-5.27,15.03-12.85,15.03c-0.7,0-1.37-0.07-2.03-0.18c-1.01,3.78-1.58,7.85-1.58,12.18
												c0,25.21,15.78,40.85,41.19,40.85c25.07,0,40.67-15.78,40.67-41.19C260.14,84.52,243.35,68.07,219.29,68.07z
												 M219.13,141.83c-16.07,0-24.92-11.57-24.92-32.59c0-21.11,9.57-33.74,25.57-33.74c15.51,0,24.42,12.6,24.42,34.57
												C244.21,130.26,235.07,141.83,219.13,141.83z"/>
										</g>
										<g>
											<linearGradient id="SVGID_3_" gradientUnits="userSpaceOnUse" x1="295.2426" y1="68.0688" x2="295.2426" y2="149.2529">
												<stop  offset="0.1428" style="stop-color:#F89521"/>
												<stop  offset="0.9601" style="stop-color:#ED2531"/>
											</linearGradient>
											<path class="st2" d="M332.93,108.06c0-23.54-16.79-40-40.85-40c-15.35,0-27.5,6.37-34.46,17.04
												c3.8,6.5,5.9,14.29,5.9,22.96c0,9.43-2.09,17.69-5.96,24.47c6.84,10.65,18.88,16.72,34.68,16.72
												C317.33,149.25,332.93,133.48,332.93,108.06z M291.9,141.83c-16.05,0-24.89-11.57-24.89-32.59
												c0-21.11,9.57-33.74,25.57-33.74c15.51,0,24.4,12.6,24.4,34.57C316.97,130.26,307.84,141.83,291.9,141.83z"/>
										</g>
										<g>
											<linearGradient id="SVGID_4_" gradientUnits="userSpaceOnUse" x1="438.513" y1="68.2265" x2="438.513" y2="149.2529">
												<stop  offset="0.1428" style="stop-color:#F89521"/>
												<stop  offset="0.9601" style="stop-color:#ED2531"/>
											</linearGradient>
											<path class="st3" d="M464.58,119.79c-3.22,12.51-13.12,20.53-25.48,20.53c-16.72,0-25.21-10.08-25.91-30.86l-0.02-1.26
												h60.27c-0.07-11.01-1.1-16.9-3.87-22.26c-5.94-11.25-18.03-17.71-33.13-17.71c-14.9,0-26.42,6.35-32.86,17.17
												c3.69,6.44,5.74,14.11,5.74,22.66c0,9.16-1.98,17.24-5.65,23.9c6.32,10.92,17.6,17.29,32.1,17.29
												c19.4,0,32.5-10.44,37.05-29.46H464.58z M413.21,99.78c1.37-14.94,10.38-24.62,22.89-24.62c13.5,0,21.54,9,22.06,24.69
												l0.05,1.26h-45.13L413.21,99.78z"/>
										</g>
										<g>
											<linearGradient id="SVGID_5_" gradientUnits="userSpaceOnUse" x1="501.7765" y1="69.0646" x2="501.7765" y2="146.4225">
												<stop  offset="0.1428" style="stop-color:#F89521"/>
												<stop  offset="0.9601" style="stop-color:#ED2531"/>
											</linearGradient>
											<path class="st4" d="M522.64,69.06c-4.52,0-9.97,2.26-14.24,5.89c-2.87,2.39-4.73,4.69-9.97,12.28l-2.36,3.43l0.78-19.76
												h-29.41v6.43h5.8c9.02,0,10.72,1.86,10.72,11.72v39.22c0,9.86-1.7,11.72-10.72,11.72h-5.8v6.43h49.32v-6.43h-8.14
												c-0.97,0-1.84-0.03-2.65-0.08h-15.79c0,0,7.72-0.15,7.72-5.14l0-11.94l0.03-21.56c2.22-9.07,5.17-14.92,9.83-19.59
												c3.5-3.68,8.29-6.36,11.37-6.36c2.13,0,3.2,0.8,3.2,2.38c0,0.46-0.15,1.15-0.85,1.86c-2.36,1.9-2.98,3.06-2.98,5.49
												c0,4.55,3.5,7.97,8.14,7.97c5.67,0,9.47-4.68,9.47-11.64C536.12,74.36,530.32,69.06,522.64,69.06z"/>
										</g>
										<g>
											<linearGradient id="SVGID_6_" gradientUnits="userSpaceOnUse" x1="157.0373" y1="69.0646" x2="157.0373" y2="146.4225">
												<stop  offset="0.1428" style="stop-color:#F89521"/>
												<stop  offset="0.9601" style="stop-color:#ED2531"/>
											</linearGradient>
											<path class="st5" d="M177.9,69.06c-4.52,0-9.97,2.26-14.24,5.89c-2.87,2.39-4.73,4.69-9.97,12.28l-2.36,3.43l0.78-19.76
												H122.7v6.43h5.8c9.02,0,10.72,1.86,10.72,11.72v39.22c0,9.86-1.7,11.72-10.72,11.72h-5.8v6.43h49.32v-6.43h-8.14
												c-0.97,0-1.84-0.03-2.65-0.08h-15.79c0,0,7.72-0.15,7.72-5.14l0-11.94l0.03-21.56c2.22-9.07,5.17-14.92,9.83-19.59
												c3.5-3.68,8.29-6.36,11.37-6.36c2.13,0,3.2,0.8,3.2,2.38c0,0.46-0.15,1.15-0.85,1.86c-2.36,1.9-2.98,3.06-2.98,5.49
												c0,4.55,3.5,7.97,8.14,7.97c5.67,0,9.47-4.68,9.47-11.64C191.38,74.36,185.58,69.06,177.9,69.06z"/>
										</g>
										<g>
											<linearGradient id="SVGID_7_" gradientUnits="userSpaceOnUse" x1="368.2001" y1="68.0688" x2="368.2001" y2="149.2529">
												<stop  offset="0.1428" style="stop-color:#F89521"/>
												<stop  offset="0.9601" style="stop-color:#ED2531"/>
											</linearGradient>
											<path class="st6" d="M365.09,68.07c-15.44,0-27.66,6.44-34.57,17.24c3.74,6.46,5.78,14.18,5.78,22.75
												c0,9.32-2.05,17.53-5.85,24.26c6.82,10.78,18.91,16.93,34.82,16.93c25.1,0,40.67-15.78,40.67-41.19
												C405.94,84.52,389.15,68.07,365.09,68.07z M364.94,141.83c-16.07,0-24.92-11.57-24.92-32.59
												c0-21.11,9.57-33.74,25.59-33.74c15.51,0,24.4,12.6,24.4,34.57C390.01,130.26,380.87,141.83,364.94,141.83z"/>
										</g>
										<g>
											<linearGradient id="SVGID_8_" gradientUnits="userSpaceOnUse" x1="332.5148" y1="135.4558" x2="332.5148" y2="180.2904">
												<stop  offset="0.1428" style="stop-color:#F89521"/>
												<stop  offset="0.9601" style="stop-color:#ED2531"/>
											</linearGradient>
											<path class="st7" d="M347.71,173.85h-16.23c0,0,7.28-0.2,7.28-5.86c0-1.28-0.02-22.54-0.02-22.54
												c-4.05-2.63-7.52-5.99-10.24-9.99c-1.13,1.62-2.36,3.15-3.71,4.55v22.15c0,9.86-1.71,11.73-10.71,11.73h-4.79v6.41h46.48
												v-6.41h-6.3C348.84,173.88,348.26,173.86,347.71,173.85z"/>
										</g>
									</g>
								</g>
							</g>
						</g>
						<g>
							<g>
								<path class="st8" d="M466.7,182.91c-6.79,9.82-18.14,16.26-30.99,16.26s-24.19-6.44-30.98-16.26
									c13.56,0.11,23.97-3.9,30.99-12.36C444.21,178.95,454.74,182.84,466.7,182.91z"/>
							</g>
							<g>
								<g>
									<path class="st8" d="M438.68,163.13c3.65,8.26,14.28,13.88,26.86,13.88c12.57,0,23.21-5.62,26.85-13.88
										c-10.36-0.03-19.49-3.3-26.85-10.37C459.47,159.89,450.44,163.26,438.68,163.13z"/>
								</g>
								<g>
									<path class="st8" d="M379.02,163.13c3.65,8.26,14.28,13.88,26.86,13.88c12.57,0,23.21-5.62,26.85-13.88
										c-10.36-0.03-19.49-3.3-26.85-10.37C399.81,159.89,390.78,163.26,379.02,163.13z"/>
								</g>
							</g>
						</g>
					</g>
				</g>
				<g>
					<linearGradient id="SVGID_9_" gradientUnits="userSpaceOnUse" x1="255.8381" y1="45.5413" x2="255.8381" y2="53.389">
						<stop  offset="0.1428" style="stop-color:#F89521"/>
						<stop  offset="0.9601" style="stop-color:#ED2531"/>
					</linearGradient>
					<polyline class="st9" points="310.11,53.39 310.11,45.54 201.56,45.54 201.56,53.39 					"/>
				</g>
			</g>
		</g>
	</g>
	<g>
		<g>
			<linearGradient id="SVGID_10_" gradientUnits="userSpaceOnUse" x1="553.1567" y1="108.0277" x2="550.4922" y2="-9.2112">
				<stop  offset="0.1428" style="stop-color:#F89521"/>
				<stop  offset="0.9601" style="stop-color:#ED2531"/>
			</linearGradient>
			<path class="st10" d="M559.58,75.38c0,3.96-3.1,7.06-7.15,7.06c-4,0-7.19-3.11-7.19-7.06c0-3.87,3.19-6.98,7.19-6.98
				C556.48,68.4,559.58,71.51,559.58,75.38z M547.03,75.38c0,3.11,2.3,5.57,5.45,5.57c3.07,0,5.32-2.47,5.32-5.53
				c0-3.11-2.25-5.62-5.36-5.62C549.33,69.81,547.03,72.32,547.03,75.38z M551.33,79.04h-1.62v-6.98c0.64-0.13,1.53-0.21,2.68-0.21
				c1.32,0,1.91,0.21,2.42,0.51c0.38,0.3,0.68,0.85,0.68,1.53c0,0.77-0.6,1.36-1.44,1.62v0.08c0.68,0.25,1.06,0.77,1.27,1.7
				c0.21,1.06,0.34,1.49,0.51,1.74h-1.75c-0.21-0.25-0.34-0.89-0.55-1.7c-0.12-0.77-0.55-1.11-1.44-1.11h-0.77V79.04z M551.37,75.08
				h0.77c0.89,0,1.62-0.3,1.62-1.02c0-0.64-0.47-1.06-1.49-1.06c-0.43,0-0.72,0.04-0.89,0.09V75.08z"/>
		</g>
	</g>
</g>
</svg>
